# xmcd
#
# Track frame offsets:
#	150
#	26670
#	52758
#	74145
#	95335
#	117690
#	144300
#	164003
#	188663
#	209375
#	231330
#	253150
#
# Disc length: 3754 seconds
#
# Revision: 0
# Processed by: cddbd v1.5.1PL2 Copyright (c) Steve Scherf et al.
# Submitted via: dBpowerAMP V4.0
#
DISCID=b40ea80c
DTITLE=Santana - Supernatural
DYEAR=1900
DGENRE=
TTITLE0=01 Taleo
TTITLE1=02 Love Of My Life
TTITLE2=03 Put Your Lights On
TTITLE3=04 Smooth
TTITLE4=05 Do You Like The Way
TTITLE5=06 Maria Maria
TTITLE6=07 Migra
TTITLE7=08 Corazon Espinado
TTITLE8=09 Wishing It Was
TTITLE9=10 El Farol
TTITLE10=11 Primavera
TTITLE11=12 The Calling
EXTD=
EXTT0=
EXTT1=
EXTT2=
EXTT3=
EXTT4=
EXTT5=
EXTT6=
EXTT7=
EXTT8=
EXTT9=
EXTT10=
EXTT11=
PLAYORDER=
